<svg xmlns="http://www.w3.org/2000/svg" width="858.759" height="581.934" viewBox="0 0 858.759 581.934">
  <defs>
    <style>
      .cls-1 {
        fill: #f2f2f2;
      }

      .cls-2 {
        fill: #6c63ff;
      }

      .cls-3 {
        fill: #3f3d56;
      }

      .cls-4 {
        fill: #fff;
      }

      .cls-5 {
        fill: #ccc;
      }

      .cls-6 {
        fill: #2f2e41;
      }

      .cls-7 {
        fill: #ffb8b8;
      }

      .cls-8 {
        fill: #b3b3b3;
      }

      .cls-9 {
        fill: #e6e6e6;
      }
    </style>
  </defs>
  <g id="Group_28" data-name="Group 28" transform="translate(-184 -302)">
    <path id="Path_1" data-name="Path 1" class="cls-1" d="M982.6,738.675A198.582,198.582,0,0,1,999.039,676q3.709-8.287,8.165-16.208a1.21,1.21,0,0,0-2.089-1.221,201.334,201.334,0,0,0-22.4,61.8q-1.682,9.086-2.528,18.3c-.143,1.549,2.276,1.54,2.419,0Z" transform="translate(13.378 142.967)"/>
    <circle id="Ellipse_1" data-name="Ellipse 1" class="cls-1" cx="15.319" cy="15.319" r="15.319" transform="translate(1011.122 776)"/>
    <path id="Path_2" data-name="Path 2" class="cls-1" d="M984.17,739.082a128.828,128.828,0,0,1,10.662-40.66q2.407-5.376,5.3-10.515a.785.785,0,0,0-1.355-.792,130.614,130.614,0,0,0-14.534,40.1q-1.091,5.894-1.64,11.872c-.093,1.005,1.477,1,1.569,0Z" transform="translate(13.378 142.967)"/>
    <circle id="Ellipse_2" data-name="Ellipse 2" class="cls-1" cx="9.938" cy="9.938" r="9.938" transform="translate(1007.371 813.514)"/>
    <path id="Path_3" data-name="Path 3" class="cls-1" d="M982.19,738.144a128.834,128.834,0,0,1-16.6-38.618q-1.409-5.719-2.291-11.549a.785.785,0,0,0-1.555.209,130.612,130.612,0,0,0,13.2,40.554q2.765,5.318,6.008,10.369C981.5,739.959,982.731,738.988,982.19,738.144Z" transform="translate(13.378 142.967)"/>
    <circle id="Ellipse_3" data-name="Ellipse 3" class="cls-1" cx="9.938" cy="9.938" r="9.938" transform="translate(965.17 812.817)"/>
    <path id="Path_4" data-name="Path 4" class="cls-1" d="M341.049,738.675A198.585,198.585,0,0,0,324.614,676q-3.709-8.286-8.165-16.208a1.21,1.21,0,0,1,2.089-1.221,201.33,201.33,0,0,1,22.4,61.8q1.682,9.086,2.528,18.3c.143,1.549-2.276,1.54-2.419,0Z" transform="translate(13.378 142.967)"/>
    <circle id="Ellipse_4" data-name="Ellipse 4" class="cls-1" cx="15.319" cy="15.319" r="15.319" transform="translate(308.649 776)"/>
    <path id="Path_5" data-name="Path 5" class="cls-1" d="M339.482,739.082a128.831,128.831,0,0,0-10.663-40.66q-2.406-5.376-5.3-10.515a.785.785,0,0,1,1.355-.792,130.611,130.611,0,0,1,14.534,40.1q1.091,5.894,1.64,11.872c.093,1.005-1.477,1-1.569,0Z" transform="translate(13.378 142.967)"/>
    <circle id="Ellipse_5" data-name="Ellipse 5" class="cls-1" cx="9.938" cy="9.938" r="9.938" transform="translate(323.162 813.514)"/>
    <path id="Path_6" data-name="Path 6" class="cls-1" d="M341.463,738.144a128.83,128.83,0,0,0,16.6-38.618q1.409-5.719,2.29-11.549a.785.785,0,0,1,1.555.209,130.612,130.612,0,0,1-13.2,40.554q-2.765,5.318-6.008,10.369c-.545.85-1.779-.121-1.237-.965Z" transform="translate(13.378 142.967)"/>
    <circle id="Ellipse_6" data-name="Ellipse 6" class="cls-1" cx="9.938" cy="9.938" r="9.938" transform="translate(365.363 812.817)"/>
    <path id="Path_7" data-name="Path 7" class="cls-2" d="M925.025,538.412l.239,180.114a12.626,12.626,0,0,1-12.593,12.63l-74.817.11c21.062-39.4,32.987-101.415,32.917-149.218a281.269,281.269,0,0,0-5.721-56.161l47.345-.069a12.626,12.626,0,0,1,12.63,12.594Z" transform="translate(13.378 142.967)"/>
    <path id="Path_8" data-name="Path 8" class="cls-3" d="M1028.19,740.967H289.9a1.191,1.191,0,1,1,0-2.381H1028.19a1.191,1.191,0,0,1,0,2.381Z" transform="translate(13.378 142.967)"/>
    <path id="Path_9" data-name="Path 9" class="cls-3" d="M815.388,513.794l-133.338-.523,12.966-43.137a16.6,16.6,0,0,1,15.8-11.75h.063l76.106.3a16.6,16.6,0,0,1,15.774,11.875Z" transform="translate(13.378 142.967)"/>
    <path id="Path_10" data-name="Path 10" class="cls-2" d="M889.826,499.033a14,14,0,0,0-14,14h28a14,14,0,0,0-14-14Z" transform="translate(13.378 142.967)"/>
    <path id="Path_11" data-name="Path 11" class="cls-3" d="M932.826,740.033h-368a17.019,17.019,0,0,1-17-17v-194a17.019,17.019,0,0,1,17-17h368a17.019,17.019,0,0,1,17,17v194a17.019,17.019,0,0,1-17,17Zm-368-226a15.017,15.017,0,0,0-15,15v194a15.017,15.017,0,0,0,15,15h368a15.017,15.017,0,0,0,15-15v-194a15.017,15.017,0,0,0-15-15Z" transform="translate(13.378 142.967)"/>
    <path id="Path_12" data-name="Path 12" class="cls-4" d="M764.826,497.533h-32a8.5,8.5,0,1,1,0-17h32a8.5,8.5,0,0,1,0,17Z" transform="translate(13.378 142.967)"/>
    <path id="Path_13" data-name="Path 13" class="cls-3" d="M748.826,702.033a76,76,0,1,1,76-76,76,76,0,0,1-76,76Zm0-150a74,74,0,1,0,74,74A74,74,0,0,0,748.826,552.033Z" transform="translate(13.378 142.967)"/>
    <path id="Path_14" data-name="Path 14" class="cls-3" d="M748.826,676.033a50,50,0,1,1,50-50A50,50,0,0,1,748.826,676.033Zm0-98a48,48,0,1,0,48,48,48,48,0,0,0-48-48Z" transform="translate(13.378 142.967)"/>
    <circle id="Ellipse_7" data-name="Ellipse 7" class="cls-5" cx="38" cy="38" r="38" transform="translate(724.204 731)"/>
    <path id="Path_15" data-name="Path 15" class="cls-4" d="M725.826,626.033a25,25,0,0,1,21.5-24.751,25,25,0,1,0,0,49.5A25,25,0,0,1,725.826,626.033Z" transform="translate(13.378 142.967)"/>
    <path id="Path_16" data-name="Path 16" class="cls-3" d="M914.826,514.033h-50v-1a25,25,0,0,1,50,0Zm-47.979-2H912.8a23,23,0,0,0-45.957,0Z" transform="translate(13.378 142.967)"/>
    <path id="Path_17" data-name="Path 17" class="cls-3" d="M572.826,542.033a10,10,0,1,1,10-10A10,10,0,0,1,572.826,542.033Zm0-18a8,8,0,1,0,8,8,8,8,0,0,0-8-8Z" transform="translate(13.378 142.967)"/>
    <circle id="Ellipse_8" data-name="Ellipse 8" class="cls-2" cx="5" cy="5" r="5" transform="translate(581.204 670)"/>
    <circle id="Ellipse_9" data-name="Ellipse 9" class="cls-5" cx="5" cy="5" r="5" transform="translate(607.204 670)"/>
    <circle id="Ellipse_10" data-name="Ellipse 10" class="cls-5" cx="5" cy="5" r="5" transform="translate(633.204 670)"/>
    <path id="Path_18" data-name="Path 18" class="cls-3" d="M598.826,542.033a10,10,0,1,1,10-10A10,10,0,0,1,598.826,542.033Zm0-18a8,8,0,1,0,8,8,8,8,0,0,0-8-8Z" transform="translate(13.378 142.967)"/>
    <path id="Path_19" data-name="Path 19" class="cls-3" d="M624.826,542.033a10,10,0,1,1,10-10A10,10,0,0,1,624.826,542.033Zm0-18a8,8,0,1,0,8,8,8,8,0,0,0-8-8Z" transform="translate(13.378 142.967)"/>
    <rect id="Rectangle_21" data-name="Rectangle 21" class="cls-3" width="130" height="2" transform="translate(562.204 741.874)"/>
    <rect id="Rectangle_22" data-name="Rectangle 22" class="cls-3" width="126.771" height="2" transform="translate(562.204 782.126)"/>
    <rect id="Rectangle_23" data-name="Rectangle 23" class="cls-3" width="130" height="2" transform="translate(832.204 741.874)"/>
    <rect id="Rectangle_24" data-name="Rectangle 24" class="cls-3" width="126.771" height="2" transform="translate(835.204 782.126)"/>
    <path id="Path_20" data-name="Path 20" class="cls-6" d="M443.448,401.509c-8.109-3.725-13.44-14.377-13.137-24.881s5.831-20.329,13.456-25.338a26.649,26.649,0,0,1,25.219-1.906c8.182,3.483,19.169,4.432,24.087,13.089,3.78,6.653,2.418,21.495-.258,28.892-2.313,6.394-7.968,10-13.483,12.013a45.34,45.34,0,0,1-37.511-3.022" transform="translate(13.378 142.967)"/>
    <path id="Path_21" data-name="Path 21" class="cls-7" d="M223.381,568.707l-11.659-3.793,9.081-46.773,17.207,5.6Z" transform="translate(184 302)"/>
    <path id="Path_22" data-name="Path 22" class="cls-6" d="M372.583,718.9h23.644v14.887H357.7A14.887,14.887,0,0,1,372.583,718.9Z" transform="translate(256.575 61.98) rotate(18.021)"/>
    <path id="Path_23" data-name="Path 23" class="cls-7" d="M327.75,568.961H315.49l-5.832-47.288h18.094Z" transform="translate(184 302)"/>
    <path id="Path_24" data-name="Path 24" class="cls-6" d="M306.733,565.457h23.644v14.887H291.846A14.887,14.887,0,0,1,306.733,565.457Z" transform="translate(184 302)"/>
    <path id="Path_25" data-name="Path 25" class="cls-6" d="M497.755,708.652c-.074,0-.147,0-.222-.006L483.948,708a4.506,4.506,0,0,1-4.285-4.433l-1.841-134.391a1.5,1.5,0,0,0-2.827-.679l-71.958,136.44a4.476,4.476,0,0,1-4.822,2.321l-13.521-2.575a4.5,4.5,0,0,1-3.4-5.918l52.43-148.552,4.034-43.943a4.47,4.47,0,0,1,3.936-4.05c15.277-1.877,36.624-14.395,45.092-19.689a4.446,4.446,0,0,1,3.531-.531,4.556,4.556,0,0,1,2.831,2.245,202.748,202.748,0,0,1,22.277,123.977l-13.217,96.54a4.475,4.475,0,0,1-4.45,3.891Z" transform="translate(13.378 142.967)"/>
    <circle id="Ellipse_11" data-name="Ellipse 11" class="cls-7" cx="24.561" cy="24.561" r="24.561" transform="translate(450.003 505.676)"/>
    <path id="Path_26" data-name="Path 26" class="cls-8" d="M436.714,516.821l-7.4-52.845a31.045,31.045,0,1,1,60.574-13.635c2.106,9.769,6.385,21.66,4.822,34.48h0C483.761,515.22,463.878,524.593,436.714,516.821Z" transform="translate(13.378 142.967)"/>
    <path id="Path_27" data-name="Path 27" class="cls-8" d="M469.214,434.821h-18a4.505,4.505,0,0,1-4.5-4.5v-6a4.505,4.505,0,0,1,4.5-4.5h18a4.505,4.505,0,0,1,4.5,4.5v6A4.505,4.505,0,0,1,469.214,434.821Z" transform="translate(13.378 142.967)"/>
    <path id="Path_28" data-name="Path 28" class="cls-7" d="M560.437,534.7a10.743,10.743,0,0,0-8.715-13.979L495.693,440.51l-16.614,16.425,60.3,73.683a10.8,10.8,0,0,0,21.059,4.085Z" transform="translate(13.378 142.967)"/>
    <path id="Path_29" data-name="Path 29" class="cls-8" d="M513.22,465.049l-20.234,13.507a4.817,4.817,0,0,1-7.029-1.948l-10.365-21.928a13.377,13.377,0,1,1,22.3-14.789l16.229,17.919a4.817,4.817,0,0,1-.9,7.239Z" transform="translate(13.378 142.967)"/>
    <path id="Path_30" data-name="Path 30" class="cls-7" d="M362.5,426.923a10.524,10.524,0,0,1,.239,1.64L405.7,453.345l10.441-6.011,11.131,14.572-17.45,12.438a8,8,0,0,1-9.6-.234l-44.3-34.946a10.5,10.5,0,1,1,6.576-12.241Z" transform="translate(13.378 142.967)"/>
    <path id="Path_31" data-name="Path 31" class="cls-8" d="M418.185,471.353l-10.794-21.8a4.817,4.817,0,0,1,2.835-6.72l23.078-7.46a13.377,13.377,0,1,1,11.8,24.012l-19.857,13.79a4.817,4.817,0,0,1-7.063-1.82Z" transform="translate(13.378 142.967)"/>
    <path id="Path_32" data-name="Path 32" class="cls-6" d="M477.668,356.337a4.063,4.063,0,0,0,4.317-2.409,5.851,5.851,0,0,0-.416-5.138,10.736,10.736,0,0,0-3.776-3.7,12.406,12.406,0,0,0-5.982-2.058,7.461,7.461,0,0,0-5.794,2.2,5.377,5.377,0,0,0-.972,5.928c.9,1.732,2.783,2.7,4.619,3.363a27.1,27.1,0,0,0,11.378,1.494" transform="translate(13.378 142.967)"/>
    <path id="Path_33" data-name="Path 33" class="cls-6" d="M485.522,398.452c-4.293.2-3.554-8.907-4.9-12.989s-3.2-8.951-7.421-9.734c-3.463-.641-6.592,1.891-9.609,3.709-5.376,3.24-12.336,4.435-17.981,1.691s-9.079-10.078-6.333-15.723a12.876,12.876,0,0,1,8.049-6.341,25.907,25.907,0,0,1,10.462-.5,53.527,53.527,0,0,1,21.886,7.757c4.582,2.874,8.942,6.786,10.306,12.02S491.9,397.8,486.57,398.7Z" transform="translate(13.378 142.967)"/>
    <path id="Path_34" data-name="Path 34" class="cls-6" d="M474.29,343.668c-3.243-4.111-2.021-10.588,1.758-14.211s9.4-4.753,14.615-4.292a29.621,29.621,0,0,1,24.025,17.275c3.3,7.539,3.269,16.163,6.249,23.832a32.137,32.137,0,0,0,43.41,17.543c5.188-2.392,10.128-7.076,9.832-12.782,3.28,12.646-2.628,27.112-13.823,33.847-6.557,3.945-14.323,5.284-21.92,6.206-4.951.6-10.039,1.047-14.87-.19-6.759-1.731-12.418-6.72-15.845-12.8s-4.775-13.161-4.827-20.138c-.041-5.435.671-10.874.295-16.3s-2.006-11.031-5.937-14.785-10.564-4.99-14.878-1.683c-1.734,1.329-3,3.27-4.956,4.25s-5.036.218-5.167-1.963Z" transform="translate(13.378 142.967)"/>
    <path id="Path_35" data-name="Path 35" class="cls-3" d="M380.185,427.1H177.607a6.994,6.994,0,0,1-6.985-6.985v-114.1a6.994,6.994,0,0,1,6.985-6.985H380.185a6.993,6.993,0,0,1,6.985,6.985v114.1a6.993,6.993,0,0,1-6.985,6.986ZM177.607,300.585a5.439,5.439,0,0,0-5.433,5.433V420.113a5.439,5.439,0,0,0,5.433,5.433H380.185a5.44,5.44,0,0,0,5.433-5.433V306.018a5.439,5.439,0,0,0-5.433-5.433Z" transform="translate(13.378 142.967)"/>
    <circle id="Ellipse_12" data-name="Ellipse 12" class="cls-9" cx="28.967" cy="28.967" r="28.967" transform="translate(228.801 464.158)"/>
    <path id="Path_36" data-name="Path 36" class="cls-2" d="M356.012,401.309l-34-58.9a2.421,2.421,0,0,0-4.194,0l-20.751,35.942-30.936-53.582a3.1,3.1,0,0,0-5.377,0l-43.6,75.51a3.1,3.1,0,0,0,2.689,4.657H353.916a2.421,2.421,0,0,0,2.1-3.632Z" transform="translate(13.378 142.967)"/>
    <rect id="Rectangle_25" data-name="Rectangle 25" class="cls-3" width="12.418" height="12.418" transform="translate(198.747 455.971)"/>
    <path id="Path_37" data-name="Path 37" class="cls-5" d="M459.039,259.1H300.753a5.464,5.464,0,0,1-5.458-5.458v-89.15a5.464,5.464,0,0,1,5.458-5.458H459.039a5.464,5.464,0,0,1,5.458,5.458v89.15A5.464,5.464,0,0,1,459.039,259.1ZM300.753,160.246a4.25,4.25,0,0,0-4.245,4.245v89.15a4.25,4.25,0,0,0,4.245,4.245H459.039a4.25,4.25,0,0,0,4.245-4.245v-89.15a4.25,4.25,0,0,0-4.245-4.245Z" transform="translate(13.378 142.967)"/>
    <circle id="Ellipse_13" data-name="Ellipse 13" class="cls-1" cx="22.634" cy="22.634" r="22.634" transform="translate(343.679 319.313)"/>
    <path id="Path_38" data-name="Path 38" class="cls-9" d="M440.152,238.947l-26.569-46.018a1.892,1.892,0,0,0-3.277,0l-16.214,28.084L369.92,179.146a2.426,2.426,0,0,0-4.2,0l-34.064,59a2.426,2.426,0,0,0,2.1,3.639H438.513a1.892,1.892,0,0,0,1.639-2.839Z" transform="translate(13.378 142.967)"/>
    <rect id="Rectangle_26" data-name="Rectangle 26" class="cls-5" width="9.703" height="9.703" transform="translate(320.195 312.916)"/>
  </g>
</svg>
