<svg xmlns="http://www.w3.org/2000/svg" width="800.229" height="695.506" viewBox="0 0 800.229 695.506">
  <defs>
    <style>
      .cls-1 {
        fill: #3f3d56;
      }

      .cls-2 {
        fill: #6c63ff;
      }

      .cls-3 {
        fill: #fff;
      }

      .cls-4 {
        fill: #f2f2f2;
      }

      .cls-5 {
        fill: #2f2e41;
      }

      .cls-6 {
        fill: #ccc;
      }
    </style>
  </defs>
  <g id="Group_1" data-name="Group 1" transform="translate(-0.012 0)">
    <path id="Path_39" data-name="Path 39" class="cls-1" d="M966.9,290.169c-.43.63-.87,1.25-1.31,1.87l-1.01-2.03-.16-.33-1-2-25.46-51.31-.01-.01-43.16-86.94v-.01l-.99-1.99v-.01l-21.36-43.03-1.01-2.04q1.14.03,2.28.09l1.02,2.05,21.3,42.93.01.01.99,1.99v.01l42.06,84.73v.01l.99,1.99v.01l25.46,51.27.34.69Z" transform="translate(-199.874 -102.289)"/>
    <path id="Path_40" data-name="Path 40" class="cls-1" d="M963.27,149.419H772.73c.51-.67,1.03-1.34,1.57-2H961.7C962.24,148.078,962.76,148.749,963.27,149.419Z" transform="translate(-199.874 -102.289)"/>
    <path id="Path_41" data-name="Path 41" class="cls-1" d="M987.41,234.159c-.06.67-.13,1.34-.22,2H938.38v-2Z" transform="translate(-199.874 -102.289)"/>
    <path id="Path_42" data-name="Path 42" class="cls-1" d="M779.98,140.828v162.92c-.69-.73-1.35-1.47-2-2.21v-158.5C778.63,142.3,779.29,141.559,779.98,140.828Z" transform="translate(-199.874 -102.289)"/>
    <rect id="Rectangle_34" data-name="Rectangle 34" class="cls-1" width="186.062" height="2" transform="translate(579.107 185.389)"/>
    <path id="Path_43" data-name="Path 43" class="cls-2" d="M895.465,195.56c0,17.046-25.068,65.114-34.483,82.566a3.994,3.994,0,0,1-7.034,0c-9.415-17.452-34.483-65.521-34.483-82.566a38,38,0,0,1,76,0Z" transform="translate(-199.874 -102.289)"/>
    <circle id="Ellipse_14" data-name="Ellipse 14" class="cls-3" cx="17" cy="17" r="17" transform="translate(640.591 76.272)"/>
    <circle id="Ellipse_15" data-name="Ellipse 15" class="cls-2" cx="7" cy="7" r="7" transform="translate(650.591 180.272)"/>
    <path id="Path_44" data-name="Path 44" class="cls-4" d="M421.21,786.458c.3.14.61.28.92.4-.28-.09-.56-.18-.83-.27q-5.94-1.965-11.79-4.17-9.4-3.525-18.56-7.65-6.541-2.94-12.96-6.17a326.3,326.3,0,0,1-98.82-76.48q-3.78-4.32-7.41-8.79-3.089-3.795-6.05-7.7a318.537,318.537,0,0,1-29.8-47.33,325.628,325.628,0,0,1-36-152.9c.28-18,2.17-36.37,9.73-52.7,6.25-13.49,16.91-25.46,30.33-31.4,1.12-.5,2.26-.96,3.42-1.36a43.646,43.646,0,0,1,5.45-1.57c19.18-4.22,39.43,4.41,53.72,17.88s23.67,31.24,32.3,48.89c27.45,56.18,51.42,114.53,70.1,174.4.21.68.42,1.35.63,2.02a90.592,90.592,0,0,0-18.653,18.1l-9.784,15.849a89.276,89.276,0,0,0-5.012,12.776q-.855,2.76-1.51,5.6a90.021,90.021,0,0,0,50.58,102.57Z" transform="translate(-199.874 -102.289)"/>
    <path id="Path_45" data-name="Path 45" class="cls-4" d="M441.14,792.458l-.07.35-.02.08c0-.03-.01-.05-.01-.08-.02-.13-.03-.26-.05-.39C441.04,792.429,441.09,792.448,441.14,792.458Z" transform="translate(-199.874 -102.289)"/>
    <path id="Path_46" data-name="Path 46" class="cls-3" d="M370.87,675.689c.42.87.84,1.74,1.27,2.6q-.855,2.76-1.51,5.6c-.45-.93-.91-1.87-1.36-2.8q-10.98-22.515-21.36-45.3c-11.92-26.03-23.43-52.24-34.96-78.43q-18.21-41.37-36.41-82.72-18.195-41.37-36.4-82.72a2.369,2.369,0,0,1-.17-.62c-.21-1.92,2.51-3.31,3.42-1.36a.217.217,0,0,1,.03.05q2.28,5.145,4.54,10.3,18.195,41.355,36.4,82.72,18.135,41.205,36.28,82.42c11.49,26.1,23.01,52.19,34.99,78.06Q363.115,659.659,370.87,675.689Z" transform="translate(-199.874 -102.289)"/>
    <path id="Path_47" data-name="Path 47" class="cls-3" d="M432.5,795.309c-.67-1.05-1.34-2.09-2-3.14-.57-.89-1.13-1.78-1.69-2.67-.14-.22-.28-.43-.4-.65q2.76.855,5.54,1.64c.15.25.31.51.48.76.45.71.9,1.43,1.36,2.14.07.12.13.23.18.34C436.76,795.659,433.75,797.249,432.5,795.309Z" transform="translate(-199.874 -102.289)"/>
    <path id="Path_48" data-name="Path 48" class="cls-4" d="M423.44,789.6c.82,1.15,1.63,2.3,2.43,3.46-1.39.31-2.77.61-4.17.9-1.11.22-2.22.44-3.33.64a188.709,188.709,0,0,1-203.26-101.05c-4.71-9.42-8.69-19.47-9.17-29.99-.4-8.69,1.91-17.79,7.27-24.5.44-.56.91-1.1,1.4-1.63a27.373,27.373,0,0,1,2.41-2.28,31.43,31.43,0,0,1,18.89-6.85,43.57,43.57,0,0,1,13.83,1.63c11.06,3.14,20.72,9.83,29.97,16.67a718.956,718.956,0,0,1,88.51,76.74c.9.93,1.81,1.88,2.7,2.82a90.581,90.581,0,0,0,50.29,60.3.5.5,0,0,1,.09.13C422.03,787.589,422.74,788.589,423.44,789.6Z" transform="translate(-199.874 -102.289)"/>
    <path id="Path_49" data-name="Path 49" class="cls-4" d="M426.02,793.279c-.05-.07-.1-.15-.15-.22.03-.01.05-.01.08-.02Z" transform="translate(-199.874 -102.289)"/>
    <path id="Path_50" data-name="Path 50" class="cls-3" d="M213.46,639.342l41.233,33.118,41.233,33.118c13.059,10.489,26.109,20.989,39.322,31.283,13.1,10.2,26.356,20.206,39.927,29.772,13.552,9.553,27.417,18.672,41.7,27.1q2.668,1.574,5.355,3.114c1.24.712,2.438-1.169,1.189-1.886-14.385-8.254-28.349-17.222-41.981-26.664s-26.966-19.37-40.1-29.517c-13.207-10.2-26.23-20.636-39.242-31.085q-20.543-16.5-41.084-33L219.78,641.577l-5.131-4.121c-1.116-.9-2.3,1-1.189,1.886Z" transform="translate(-199.874 -102.289)"/>
    <path id="Path_51" data-name="Path 51" class="cls-4" d="M778.79,786.458c-.3.14-.61.28-.92.4.28-.09.56-.18.83-.27q5.94-1.965,11.79-4.17,9.4-3.525,18.56-7.65,6.541-2.94,12.96-6.17a326.3,326.3,0,0,0,98.82-76.48q3.78-4.32,7.41-8.79,3.089-3.795,6.05-7.7a318.538,318.538,0,0,0,29.8-47.33,325.628,325.628,0,0,0,36-152.9c-.28-18-2.17-36.37-9.73-52.7-6.25-13.49-16.91-25.46-30.33-31.4-1.12-.5-2.26-.96-3.42-1.36a43.643,43.643,0,0,0-5.45-1.57c-19.18-4.22-39.43,4.41-53.72,17.88s-23.67,31.24-32.3,48.89c-27.45,56.18-51.42,114.53-70.1,174.4-.21.68-.42,1.35-.63,2.02a90.589,90.589,0,0,1,18.653,18.1l9.784,15.849a89.293,89.293,0,0,1,5.012,12.776q.856,2.76,1.51,5.6a90.021,90.021,0,0,1-50.58,102.57Z" transform="translate(-199.874 -102.289)"/>
    <path id="Path_52" data-name="Path 52" class="cls-4" d="M758.86,792.458l.07.35.02.08c0-.03.01-.05.01-.08.02-.13.03-.26.05-.39C758.96,792.429,758.91,792.448,758.86,792.458Z" transform="translate(-199.874 -102.289)"/>
    <path id="Path_53" data-name="Path 53" class="cls-3" d="M829.13,675.689c-.42.87-.84,1.74-1.27,2.6q.855,2.76,1.51,5.6c.45-.93.91-1.87,1.36-2.8q10.98-22.515,21.36-45.3c11.92-26.03,23.43-52.24,34.96-78.43q18.21-41.37,36.41-82.72,18.195-41.37,36.4-82.72a2.366,2.366,0,0,0,.17-.62c.21-1.92-2.51-3.31-3.42-1.36a.219.219,0,0,0-.03.05q-2.28,5.145-4.54,10.3-18.195,41.355-36.4,82.72-18.135,41.205-36.28,82.42c-11.49,26.1-23.01,52.19-34.99,78.06Q836.885,659.659,829.13,675.689Z" transform="translate(-199.874 -102.289)"/>
    <path id="Path_54" data-name="Path 54" class="cls-3" d="M767.5,795.309c.67-1.05,1.34-2.09,2-3.14.57-.89,1.13-1.78,1.69-2.67.14-.22.28-.43.4-.65q-2.76.855-5.54,1.64c-.15.25-.31.51-.48.76-.45.71-.9,1.43-1.36,2.14-.07.12-.13.23-.18.34C763.24,795.659,766.25,797.249,767.5,795.309Z" transform="translate(-199.874 -102.289)"/>
    <path id="Path_55" data-name="Path 55" class="cls-4" d="M776.56,789.6c-.82,1.15-1.63,2.3-2.43,3.46,1.39.31,2.77.61,4.17.9,1.11.22,2.22.44,3.33.64a188.709,188.709,0,0,0,203.26-101.05c4.71-9.42,8.69-19.47,9.17-29.99.4-8.69-1.91-17.79-7.27-24.5-.44-.56-.91-1.1-1.4-1.63a27.386,27.386,0,0,0-2.41-2.28,31.429,31.429,0,0,0-18.89-6.85,43.569,43.569,0,0,0-13.83,1.63c-11.06,3.14-20.72,9.83-29.97,16.67a718.954,718.954,0,0,0-88.51,76.74c-.9.93-1.81,1.88-2.7,2.82a90.581,90.581,0,0,1-50.29,60.3.5.5,0,0,0-.09.13C777.97,787.589,777.26,788.589,776.56,789.6Z" transform="translate(-199.874 -102.289)"/>
    <path id="Path_56" data-name="Path 56" class="cls-4" d="M773.98,793.279c.05-.07.1-.15.15-.22-.03-.01-.05-.01-.08-.02Z" transform="translate(-199.874 -102.289)"/>
    <path id="Path_57" data-name="Path 57" class="cls-3" d="M986.54,639.342,945.307,672.46l-41.234,33.118c-13.059,10.489-26.109,20.989-39.322,31.283-13.1,10.2-26.356,20.206-39.927,29.772-13.552,9.553-27.417,18.672-41.7,27.1q-2.668,1.574-5.356,3.114c-1.24.712-2.438-1.169-1.189-1.886,14.385-8.254,28.349-17.222,41.981-26.664s26.966-19.37,40.1-29.517c13.207-10.2,26.23-20.636,39.242-31.085q20.543-16.5,41.084-33l41.233-33.118,5.131-4.121c1.116-.9,2.3,1,1.189,1.886Z" transform="translate(-199.874 -102.289)"/>
    <path id="Path_58" data-name="Path 58" class="cls-2" d="M568.869,459.775a6.451,6.451,0,0,0-3.737,3.291L560,473.511l-1.375,2.793a6.511,6.511,0,0,0,2.956,8.705l39.8,19.582L671.963,539.3a6.511,6.511,0,0,0,8.479-2.542c.083-.138.153-.272.226-.414l3.933-7.992,2.582-5.255a6.492,6.492,0,0,0-2.97-8.7l-8.414-4.141-62.248-30.616L573.832,460.1A6.5,6.5,0,0,0,568.869,459.775Z" transform="translate(-199.874 -102.289)"/>
    <path id="Path_59" data-name="Path 59" class="cls-5" d="M556.554,463.652a18.084,18.084,0,0,0-1.883,3.3,18.522,18.522,0,0,0,9.453,24.4l31.1,13.731a6.528,6.528,0,0,0,6.151-.488,6.407,6.407,0,0,0,1.855-1.826,6.227,6.227,0,0,0,.565-1.007l9.692-21.956a.915.915,0,0,0,.06-.16,6.5,6.5,0,0,0-3.381-8.411l-31.1-13.731a18.529,18.529,0,0,0-22.512,6.152Z" transform="translate(-199.874 -102.289)"/>
    <path id="Path_60" data-name="Path 60" class="cls-2" d="M641.82,563.529H627.06a6.506,6.506,0,0,0-6.5,6.5v92.01a6.506,6.506,0,0,0,6.5,6.5h14.76a6.5,6.5,0,0,0,6.5-6.5v-92.01a6.5,6.5,0,0,0-6.5-6.5Z" transform="translate(-199.874 -102.289)"/>
    <path id="Path_61" data-name="Path 61" class="cls-6" d="M632.714,596.9a8.612,8.612,0,0,1-3.144-.594L547.35,564.14a8.922,8.922,0,0,1-4.929-11.6l7.035-17.982a9.042,9.042,0,0,1,4.719-4.986,8.66,8.66,0,0,1,6.771-.187l82.22,32.167a8.668,8.668,0,0,1,4.847,4.732,9.041,9.041,0,0,1,.083,6.865l-7.035,17.982A9.015,9.015,0,0,1,632.714,596.9Z" transform="translate(-199.874 -102.289)"/>
    <path id="Path_62" data-name="Path 62" class="cls-5" d="M642.252,674.289h-16a5.5,5.5,0,1,1,0-11h16a5.5,5.5,0,0,1,0,11Z" transform="translate(-199.874 -102.289)"/>
    <path id="Path_63" data-name="Path 63" class="cls-5" d="M516.367,574.6a26.659,26.659,0,0,1-5.98-.632c-8.877-2.049-12.155-5.945-12.692-7.924a1.758,1.758,0,0,1,.325-1.81,1.532,1.532,0,0,1,1.638-.228c2.757.92,41.847-6.81,55.729-10.013,5.773-1.332,9.825-1.112,12.044.652A3.884,3.884,0,0,1,569,557.484v.348l-27.3,10.111C540.815,568.383,528.093,574.6,516.367,574.6Z" transform="translate(-199.874 -102.289)"/>
    <path id="Path_64" data-name="Path 64" class="cls-5" d="M730.179,695.1a1,1,0,0,1-.916-.6L677.756,577.344a2.985,2.985,0,0,0-2.807-1.792l-140.932,2.877a2.986,2.986,0,0,0-2.5,1.435l-67.637,110.6a1,1,0,1,1-1.706-1.043l67.637-110.6a4.978,4.978,0,0,1,4.163-2.391l140.932-2.876a5,5,0,0,1,4.679,2.987l51.507,117.156a1,1,0,0,1-.915,1.4Z" transform="translate(-199.874 -102.289)"/>
    <path id="Path_65" data-name="Path 65" class="cls-5" d="M567,699.289a1,1,0,0,1-.961-.724l-32.6-113.422a1,1,0,1,1,1.922-.553l32.6,113.421a1,1,0,0,1-.685,1.237.985.985,0,0,1-.276.04Z" transform="translate(-199.874 -102.289)"/>
    <path id="Path_66" data-name="Path 66" class="cls-6" d="M574,567.789H542a22.525,22.525,0,0,1-22.5-22.5v-5a22.526,22.526,0,0,1,22.5-22.5h32a22.525,22.525,0,0,1,22.5,22.5v5a22.525,22.525,0,0,1-22.5,22.5Z" transform="translate(-199.874 -102.289)"/>
    <circle id="Ellipse_16" data-name="Ellipse 16" class="cls-5" cx="6" cy="6" r="6" transform="translate(532.378 596.196)"/>
    <circle id="Ellipse_17" data-name="Ellipse 17" class="cls-5" cx="6" cy="6" r="6" transform="translate(250.378 596.196)"/>
    <path id="Path_67" data-name="Path 67" class="cls-5" d="M670.17,531.318a3.5,3.5,0,0,1-1.17-6.8l30.17-10.666a3.5,3.5,0,1,1,2.333,6.6l-30.17,10.667A3.478,3.478,0,0,1,670.17,531.318Z" transform="translate(-199.874 -102.289)"/>
    <path id="Path_68" data-name="Path 68" class="cls-5" d="M591.154,698.484a1,1,0,0,1-.72-1.694l90.4-93.7a1,1,0,0,1,1.44,1.389l-90.4,93.7a1,1,0,0,1-.72.306Z" transform="translate(-199.874 -102.289)"/>
    <path id="Path_69" data-name="Path 69" class="cls-5" d="M472.476,710.532a1,1,0,1,1,0-2L556,708.289h0a1,1,0,0,1,0,2l-83.524.243Z" transform="translate(-199.874 -102.289)"/>
    <path id="Path_70" data-name="Path 70" class="cls-5" d="M676.192,567.051a1,1,0,0,1-.977-.79l-4.677-21.844a1,1,0,0,1,.978-1.21h15.866V532.484a1,1,0,0,1,2,0v11.723a1,1,0,0,1-1,1H672.753l4.418,20.635a1,1,0,0,1-.979,1.209Z" transform="translate(-199.874 -102.289)"/>
    <path id="Path_71" data-name="Path 71" class="cls-5" d="M574,736.289a20,20,0,1,1,20-20A20,20,0,0,1,574,736.289Zm0-38a18,18,0,1,0,18,18,18,18,0,0,0-18-18Z" transform="translate(-199.874 -102.289)"/>
    <path id="Path_72" data-name="Path 72" class="cls-5" d="M593.252,721.289h-16a5.5,5.5,0,0,1,0-11h16a5.5,5.5,0,0,1,0,11Z" transform="translate(-199.874 -102.289)"/>
    <path id="Path_73" data-name="Path 73" class="cls-1" d="M975.273,797.282H236.979a1.191,1.191,0,0,1,0-2.381H975.273a1.191,1.191,0,1,1,0,2.381Z" transform="translate(-199.874 -102.289)"/>
    <path id="Path_74" data-name="Path 74" class="cls-2" d="M582.948,432.621a6.45,6.45,0,0,0-4.388,2.354l-7.378,9-1.974,2.407a6.51,6.51,0,0,0,.9,9.15l34.3,28.125,60.834,49.862a6.511,6.511,0,0,0,8.835-.546c.112-.116.211-.23.315-.352l5.648-6.888,3.71-4.529a6.468,6.468,0,0,0,.77-1.173,6.535,6.535,0,0,0,.672-3.587,6.45,6.45,0,0,0-2.354-4.388l-7.251-5.947-53.648-43.977-34.231-28.071a6.5,6.5,0,0,0-4.759-1.442Z" transform="translate(-199.874 -102.289)"/>
    <circle id="Ellipse_18" data-name="Ellipse 18" class="cls-2" cx="53.519" cy="53.519" r="53.519" transform="translate(307.67 186.389)"/>
    <path id="Path_75" data-name="Path 75" class="cls-5" d="M606.258,365.854l-.056-2c3.721-.1,7-.337,9.466-2.138a6.148,6.148,0,0,0,2.381-4.528,3.515,3.515,0,0,0-1.153-2.895c-1.636-1.382-4.269-.935-6.188-.055l-1.655.759,3.173-23.19,1.981.271-2.7,19.727c2.607-.767,5.023-.437,6.678.961a5.471,5.471,0,0,1,1.86,4.492,8.132,8.132,0,0,1-3.2,6.073C613.681,365.646,609.565,365.762,606.258,365.854Z" transform="translate(-199.874 -102.289)"/>
    <rect id="Rectangle_35" data-name="Rectangle 35" class="cls-5" width="10.771" height="2" transform="translate(390.135 231.492)"/>
    <path id="Path_76" data-name="Path 76" class="cls-5" d="M620.005,458.331l-23.861-24.215a18.5,18.5,0,0,0-26.362,25.964L593.643,484.3a6.5,6.5,0,0,0,8.172.887,5.388,5.388,0,0,0,1.023-.816l17.1-16.841a6.428,6.428,0,0,0,1.419-2.07A6.535,6.535,0,0,0,620.005,458.331Z" transform="translate(-199.874 -102.289)"/>
    <path id="Path_77" data-name="Path 77" class="cls-2" d="M592.82,607.529H578.06a6.506,6.506,0,0,0-6.5,6.5v92.01a6.506,6.506,0,0,0,6.5,6.5h14.76a6.5,6.5,0,0,0,6.5-6.5v-92.01a6.5,6.5,0,0,0-6.5-6.5Z" transform="translate(-199.874 -102.289)"/>
    <path id="Path_78" data-name="Path 78" class="cls-6" d="M570.573,639.181c-4.725,0-8.8-2.924-9.525-7.137l-14.964-87.01a8.219,8.219,0,0,1,1.9-6.679,10.926,10.926,0,0,1,6.611-3.731l21.607-3.716c5.52-.949,10.679,2.177,11.5,6.967l14.964,87.011a8.22,8.22,0,0,1-1.9,6.677,10.927,10.927,0,0,1-6.617,3.732l-21.607,3.716a11.643,11.643,0,0,1-1.977.17Z" transform="translate(-199.874 -102.289)"/>
    <path id="Path_79" data-name="Path 79" class="cls-5" d="M592.51,421.945a38.724,38.724,0,0,0-8.78-7.414,44.843,44.843,0,0,0-46.88.2,39.1,39.1,0,0,0-7.63,6.3,33.239,33.239,0,0,0-9.3,22.8V540.1a4.2,4.2,0,0,0,.08.875c.47,3,3.4,5.311,6.92,5.311h67.07c3.85,0,7-2.775,7-6.186V443.834a33.024,33.024,0,0,0-8.48-21.889Z" transform="translate(-199.874 -102.289)"/>
    <path id="Path_80" data-name="Path 80" class="cls-5" d="M573.092,346.46c-7.1,2.358-15.062-2.488-15.513-10.119a11.969,11.969,0,0,1,3.725-9.569,16.107,16.107,0,0,1,8.4-3.723c6.738-1.169,13.663-.221,20.43-1.228,6.826-1.016,12.843-4.542,15.834-10.954a24.665,24.665,0,0,0,.172-20.07c-3.1-7.1-9.2-12.509-15.907-16.149-12.916-7.006-28.418-8.385-42.65-5.278A66.255,66.255,0,0,0,510.926,291.2q-1.7,2.05-3.225,4.239A1.507,1.507,0,0,0,509,297.7l8.774-1.056-1.3-2.257-9.536,17.144c-.586,1.054.408,2.688,1.694,2.2l13.984-5.27-1.459-2.507-13.88,16.9c-1.216,1.48.895,3.615,2.121,2.121l13.879-16.9c.843-1.027.091-3.091-1.459-2.507l-13.984,5.27,1.694,2.2,9.536-17.144c.5-.9-.109-2.4-1.3-2.257L509,294.7l1.3,2.257c8.2-11.737,20.767-20,34.493-23.8,13.776-3.812,29.114-3.2,42.075,3.125,6.849,3.342,13.114,8.364,16.4,15.388a21.3,21.3,0,0,1-.707,19.264c-7.526,12.85-25.073,6.246-36.815,9.988-6.7,2.135-11.508,8.027-11.173,15.244a14.69,14.69,0,0,0,14.093,13.908,14.261,14.261,0,0,0,5.228-.717c1.823-.606,1.042-3.5-.8-2.893Z" transform="translate(-199.874 -102.289)"/>
    <path id="Path_81" data-name="Path 81" class="cls-6" d="M964.81,289.679h.23v-.33a3.284,3.284,0,0,1-.23.33Zm-1.54-140.26c-.51-.67-1.03-1.34-1.57-2a119.782,119.782,0,0,0-87.99-44.99q-1.14-.06-2.28-.09c-1.14-.03-2.28-.05-3.43-.05a119.637,119.637,0,0,0-88.02,38.54c-.69.73-1.35,1.47-2,2.21q-1.905,2.145-3.68,4.38c-.54.66-1.06,1.33-1.57,2a119.731,119.731,0,0,0,5.25,152.12c.65.74,1.31,1.48,2,2.21a119.84,119.84,0,0,0,185.61-11.71c.44-.62.88-1.24,1.31-1.87a119.04,119.04,0,0,0,20.29-54.01c.09-.66.16-1.33.22-2q.584-5.85.59-11.87A119.319,119.319,0,0,0,963.27,149.419Zm21.91,86.74a116.949,116.949,0,0,1-19.3,51.96q-.4.615-.84,1.23a3.284,3.284,0,0,1-.23.33c-.07.11-.15.22-.23.33a117.862,117.862,0,0,1-184.6,10.78c-.69-.76-1.36-1.52-2-2.3a117.762,117.762,0,0,1-2.73-149.07c.53-.67,1.06-1.34,1.61-2,.36-.45.73-.89,1.12-1.33.64-.78,1.31-1.54,2-2.3a117.665,117.665,0,0,1,88.02-39.5q2.235,0,4.44.09c.77.02,1.53.06,2.29.1a117.849,117.849,0,0,1,84.41,42.94c.55.66,1.08,1.33,1.61,2a118.018,118.018,0,0,1,24.66,84.74c-.07.669-.14,1.34-.23,2Zm-20.37,53.52h.23v-.33a3.271,3.271,0,0,1-.23.33Z" transform="translate(-199.874 -102.289)"/>
    <path id="Path_82" data-name="Path 82" class="cls-5" d="M458,795a91,91,0,1,1,91-91,91,91,0,0,1-91,91Zm0-180a89,89,0,1,0,89,89,89,89,0,0,0-89-89Z" transform="translate(-199.874 -102.289)"/>
    <path id="Path_83" data-name="Path 83" class="cls-5" d="M740,795a91,91,0,1,1,91-91,91,91,0,0,1-91,91Zm0-180a89,89,0,1,0,89,89A89,89,0,0,0,740,615Z" transform="translate(-199.874 -102.289)"/>
  </g>
</svg>
