<svg xmlns="http://www.w3.org/2000/svg" width="827.9" height="666.5" viewBox="0 0 827.9 666.5">
  <defs>
    <style>
      .cls-1 {
        fill: #6c63ff;
      }

      .cls-2 {
        fill: #2f2e41;
      }

      .cls-3 {
        fill: #e6e6e6;
      }

      .cls-4 {
        fill: #fff;
      }

      .cls-5 {
        fill: #3f3d56;
      }
    </style>
  </defs>
  <g id="Group_2" data-name="Group 2" transform="translate(0)">
    <path id="Path_84" data-name="Path 84" class="cls-1" d="M335.218,555.907a7.034,7.034,0,0,1-2.144-.337,6.952,6.952,0,0,1-4.092-3.457l-6.764-13.118a7.007,7.007,0,0,1,3.014-9.429L434.57,473.194a7.007,7.007,0,0,1,9.43,3.014l6.763,13.118a7.007,7.007,0,0,1-3.014,9.429L338.412,555.127A6.956,6.956,0,0,1,335.218,555.907Z" transform="translate(-186.05 -116.75)"/>
    <path id="Path_85" data-name="Path 85" class="cls-2" d="M374.88,504.8a7.037,7.037,0,0,1,.743,1.294l11.554,25.231a7,7,0,0,1-3.573,9.237l-38.859,13.582a17.484,17.484,0,0,1-21.476-8.842l.449-.219-.449.219a17.469,17.469,0,0,1,7.253-22.952l35.831-19.812a7.012,7.012,0,0,1,8.527,2.262Z" transform="translate(-186.05 -116.75)"/>
    <path id="Path_86" data-name="Path 86" class="cls-3" d="M832.45,438.75H645.26a17.655,17.655,0,0,1-11.578-4.373l-77.1-68a14.471,14.471,0,0,0-9.589-3.625H480.45V133.25a16.519,16.519,0,0,1,16.5-16.5h319a16.519,16.519,0,0,1,16.5,16.5Z" transform="translate(-186.05 -116.75)"/>
    <circle id="Ellipse_19" data-name="Ellipse 19" class="cls-4" cx="35" cy="35" r="35" transform="translate(335.9 36.5)"/>
    <path id="Path_87" data-name="Path 87" class="cls-4" d="M692.95,169.5h-65a4.5,4.5,0,0,0,0,9h65a4.5,4.5,0,0,0,0-9Z" transform="translate(-186.05 -116.75)"/>
    <path id="Path_88" data-name="Path 88" class="cls-4" d="M787.31,198H627.09c-2.01,0-3.64,2.02-3.64,4.5s1.63,4.5,3.64,4.5H787.31c2.01,0,3.64-2.02,3.64-4.5S789.32,198,787.31,198Z" transform="translate(-186.05 -116.75)"/>
    <path id="Path_89" data-name="Path 89" class="cls-4" d="M774.72,258.25H538.18c-1.92,0-3.48,2.02-3.48,4.5s1.56,4.5,3.48,4.5H774.72c1.92,0,3.48-2.02,3.48-4.5S776.64,258.25,774.72,258.25Z" transform="translate(-186.05 -116.75)"/>
    <path id="Path_90" data-name="Path 90" class="cls-4" d="M774.72,286.25H538.18c-1.92,0-3.48,2.02-3.48,4.5s1.56,4.5,3.48,4.5H774.72c1.92,0,3.48-2.02,3.48-4.5S776.64,286.25,774.72,286.25Z" transform="translate(-186.05 -116.75)"/>
    <path id="Path_91" data-name="Path 91" class="cls-4" d="M774.72,314.25H538.18c-1.92,0-3.48,2.02-3.48,4.5s1.56,4.5,3.48,4.5H774.72c1.92,0,3.48-2.02,3.48-4.5S776.64,314.25,774.72,314.25Z" transform="translate(-186.05 -116.75)"/>
    <path id="Path_92" data-name="Path 92" class="cls-4" d="M774.72,342.25H538.18c-1.92,0-3.48,2.02-3.48,4.5s1.56,4.5,3.48,4.5H774.72c1.92,0,3.48-2.02,3.48-4.5S776.64,342.25,774.72,342.25Z" transform="translate(-186.05 -116.75)"/>
    <path id="Path_93" data-name="Path 93" class="cls-1" d="M987.45,438.75H645.26a17.376,17.376,0,0,1-9.585-2.863l-.225-.148V202.25a16.519,16.519,0,0,1,16.5-16.5h319a16.519,16.519,0,0,1,16.5,16.5Z" transform="translate(-186.05 -116.75)"/>
    <circle id="Ellipse_20" data-name="Ellipse 20" class="cls-4" cx="35" cy="35" r="35" transform="translate(490.9 105.5)"/>
    <path id="Path_94" data-name="Path 94" class="cls-4" d="M847.95,238.5h-65a4.5,4.5,0,0,0,0,9h65a4.5,4.5,0,0,0,0-9Z" transform="translate(-186.05 -116.75)"/>
    <path id="Path_95" data-name="Path 95" class="cls-4" d="M942.31,267H782.09c-2.01,0-3.64,2.02-3.64,4.5s1.63,4.5,3.64,4.5H942.31c2.01,0,3.64-2.02,3.64-4.5S944.32,267,942.31,267Z" transform="translate(-186.05 -116.75)"/>
    <path id="Path_96" data-name="Path 96" class="cls-4" d="M929.72,327.25H693.18c-1.92,0-3.48,2.02-3.48,4.5s1.56,4.5,3.48,4.5H929.72c1.92,0,3.48-2.02,3.48-4.5S931.64,327.25,929.72,327.25Z" transform="translate(-186.05 -116.75)"/>
    <path id="Path_97" data-name="Path 97" class="cls-4" d="M929.72,355.25H693.18c-1.92,0-3.48,2.02-3.48,4.5s1.56,4.5,3.48,4.5H929.72c1.92,0,3.48-2.02,3.48-4.5S931.64,355.25,929.72,355.25Z" transform="translate(-186.05 -116.75)"/>
    <path id="Path_98" data-name="Path 98" class="cls-4" d="M929.72,383.25H693.18c-1.92,0-3.48,2.02-3.48,4.5s1.56,4.5,3.48,4.5H929.72c1.92,0,3.48-2.02,3.48-4.5S931.64,383.25,929.72,383.25Z" transform="translate(-186.05 -116.75)"/>
    <path id="Path_99" data-name="Path 99" class="cls-4" d="M929.72,411.25H693.18c-1.92,0-3.48,2.02-3.48,4.5s1.56,4.5,3.48,4.5H929.72c1.92,0,3.48-2.02,3.48-4.5S931.64,411.25,929.72,411.25Z" transform="translate(-186.05 -116.75)"/>
    <path id="Path_100" data-name="Path 100" class="cls-5" d="M996.95,436.25H645.26a14.945,14.945,0,0,1-9.31-3.24c-.21-.16-.41-.33-.61-.51l-29.77-26.25L558.23,364.5a16.974,16.974,0,0,0-11.24-4.25H460.95a17.024,17.024,0,0,0-17,17v389a17.024,17.024,0,0,0,17,17h536a17.024,17.024,0,0,0,17-17v-313a17.024,17.024,0,0,0-17-17Zm15,330a15.018,15.018,0,0,1-15,15h-536a15.018,15.018,0,0,1-15-15v-389a15.018,15.018,0,0,1,15-15h86.04a14.965,14.965,0,0,1,9.92,3.75l45.64,40.25L634.01,434a17.148,17.148,0,0,0,11.25,4.25H996.95a15.018,15.018,0,0,1,15,15Z" transform="translate(-186.05 -116.75)"/>
    <circle id="Ellipse_21" data-name="Ellipse 21" class="cls-1" cx="53.519" cy="53.519" r="53.519" transform="translate(49.735 272.553)"/>
    <path id="Path_101" data-name="Path 101" class="cls-1" d="M288.871,782.668H274.112a7.008,7.008,0,0,1-7-7V652.654a7.008,7.008,0,0,1,7-7h14.759a7.008,7.008,0,0,1,7,7V775.668a7.008,7.008,0,0,1-7,7Z" transform="translate(-186.05 -116.75)"/>
    <path id="Path_102" data-name="Path 102" class="cls-1" d="M320.871,782.668H306.112a7.008,7.008,0,0,1-7-7V652.654a7.008,7.008,0,0,1,7-7h14.759a7.008,7.008,0,0,1,7,7V775.668a7.008,7.008,0,0,1-7,7Z" transform="translate(-186.05 -116.75)"/>
    <path id="Path_103" data-name="Path 103" class="cls-2" d="M374.467,625.419c0,43.63-41.041,57.7-84.672,57.7s-73.328-14.074-73.328-57.7,29.369-118,73-118S374.467,581.788,374.467,625.419Z" transform="translate(-186.05 -116.75)"/>
    <path id="Path_104" data-name="Path 104" class="cls-2" d="M288.179,462.658l-.056-2c3.721-.1,7-.337,9.466-2.138a6.148,6.148,0,0,0,2.381-4.528,3.515,3.515,0,0,0-1.153-2.895c-1.636-1.382-4.269-.935-6.188-.055l-1.655.759,3.173-23.19,1.981.271-2.7,19.727c2.607-.767,5.023-.437,6.678.961a5.471,5.471,0,0,1,1.86,4.492,8.133,8.133,0,0,1-3.2,6.073C295.6,462.45,291.487,462.565,288.179,462.658Z" transform="translate(-186.05 -116.75)"/>
    <rect id="Rectangle_36" data-name="Rectangle 36" class="cls-2" width="10.771" height="2" transform="translate(119.879 313.834)"/>
    <rect id="Rectangle_37" data-name="Rectangle 37" class="cls-2" width="10.771" height="2" transform="translate(85.879 313.834)"/>
    <path id="Path_105" data-name="Path 105" class="cls-3" d="M883.95,714.25h-294a15.017,15.017,0,0,1-15-15v-162a15.017,15.017,0,0,1,15-15h294a15.017,15.017,0,0,1,15,15v162A15.017,15.017,0,0,1,883.95,714.25Zm-294-190a13.015,13.015,0,0,0-13,13v162a13.015,13.015,0,0,0,13,13h294a13.015,13.015,0,0,0,13-13v-162a13.015,13.015,0,0,0-13-13Z" transform="translate(-186.05 -116.75)"/>
    <circle id="Ellipse_22" data-name="Ellipse 22" class="cls-3" cx="35" cy="35" r="35" transform="translate(416.4 430.5)"/>
    <path id="Path_106" data-name="Path 106" class="cls-3" d="M773.45,563.5h-65a4.5,4.5,0,0,0,0,9h65a4.5,4.5,0,0,0,0-9Z" transform="translate(-186.05 -116.75)"/>
    <path id="Path_107" data-name="Path 107" class="cls-3" d="M867.81,592H707.59c-2.01,0-3.64,2.02-3.64,4.5s1.63,4.5,3.64,4.5H867.81c2.01,0,3.64-2.02,3.64-4.5S869.82,592,867.81,592Z" transform="translate(-186.05 -116.75)"/>
    <path id="Path_108" data-name="Path 108" class="cls-3" d="M855.22,652.25H618.68c-1.92,0-3.48,2.02-3.48,4.5s1.56,4.5,3.48,4.5H855.22c1.92,0,3.48-2.02,3.48-4.5S857.14,652.25,855.22,652.25Z" transform="translate(-186.05 -116.75)"/>
    <path id="Path_109" data-name="Path 109" class="cls-3" d="M855.22,680.25H618.68c-1.92,0-3.48,2.02-3.48,4.5s1.56,4.5,3.48,4.5H855.22c1.92,0,3.48-2.02,3.48-4.5S857.14,680.25,855.22,680.25Z" transform="translate(-186.05 -116.75)"/>
    <path id="Path_110" data-name="Path 110" class="cls-2" d="M246.591,428.117c4.162-6.266,11.486-8.922,18.708-9.568,8.129-.727,15.984.84,23.921,2.363,8.735,1.676,17.979,3.244,26.781,1.125a26.4,26.4,0,0,0,17.946-14.5,33.771,33.771,0,0,0,1.966-22.518c-2.062-7.986-7.182-15.014-13.388-20.321-12.667-10.833-29.808-15.7-46.3-15.243a78.27,78.27,0,0,0-45.375,15.954,73.7,73.7,0,0,0-26.145,40.972,76.829,76.829,0,0,0,3.72,48.324c3.608,8.369,8.826,15.915,12.852,24.073,3.749,7.6,6.636,16.428,4.3,24.9-2.047,7.435-8.056,14.04-15.6,16.058-7.185,1.923-14.28-1.229-18.217-7.437-3.771-5.946-3.861-13.735,1.8-18.536a13.9,13.9,0,0,1,20.05,2,14.306,14.306,0,0,1,2.862,10.489c-.279,1.889,2.611,2.7,2.893.8a16.923,16.923,0,0,0-31.553-10.927c-3.415,6.42-1.572,14.163,2.762,19.651a19.153,19.153,0,0,0,19.529,7.022c7.89-1.822,14.344-8.093,17.38-15.462,3.379-8.2,1.831-17.359-1.463-25.319C222.469,473.414,217.181,465.7,213,457.4a70.106,70.106,0,0,1-7.114-23.953A75.791,75.791,0,0,1,216.7,385.444a70.441,70.441,0,0,1,38.8-29.487c15.805-4.961,33.237-4.809,48.713,1.288,15.244,6.006,29.963,19.1,29.787,36.675-.076,7.509-2.863,15.168-8.615,20.177-6.874,5.986-16.446,6.5-25.087,5.563-8.7-.94-17.141-3.48-25.875-4.128-7.6-.564-15.792.022-22.575,3.8A22.571,22.571,0,0,0,244,426.6c-1.071,1.613,1.526,3.117,2.59,1.514Z" transform="translate(-186.05 -116.75)"/>
    <path id="Path_111" data-name="Path 111" class="cls-1" d="M231.173,678.957a7,7,0,0,1-1.057-.081l-14.591-2.221a7.008,7.008,0,0,1-5.867-7.974l18.511-121.613a7.008,7.008,0,0,1,7.974-5.867l14.591,2.221A7.007,7.007,0,0,1,256.6,551.4L238.089,673.01a7.012,7.012,0,0,1-6.916,5.947Z" transform="translate(-186.05 -116.75)"/>
    <path id="Path_112" data-name="Path 112" class="cls-2" d="M248.61,596.076a7.033,7.033,0,0,1-1.484-.159l-27.205-5.474a7,7,0,0,1-5.375-8.318l11.84-39.425a17.484,17.484,0,0,1,19.773-12.184l-.087.492.087-.492a17.469,17.469,0,0,1,14.311,19.354L255.45,590.5a7.012,7.012,0,0,1-6.84,5.571Z" transform="translate(-186.05 -116.75)"/>
    <path id="Path_113" data-name="Path 113" class="cls-5" d="M377.907,783.25h-157a1,1,0,0,1,0-2h157a1,1,0,0,1,0,2Z" transform="translate(-186.05 -116.75)"/>
  </g>
</svg>
